<svg id="Layer_2" data-name="Layer 2" xmlns="http://www.w3.org/2000/svg" viewBox="0 0 667.67 481.58"><defs><style>.cls-1{fill:none;}.cls-1,.cls-15,.cls-9{stroke:#231f20;stroke-miterlimit:10;}.cls-2{font-size:12px;font-family:Rockwell-Bold, Rockwell;font-weight:700;}.cls-2,.cls-9{fill:#231f20;}.cls-3{letter-spacing:-0.03em;}.cls-4{letter-spacing:-0.02em;}.cls-5{letter-spacing:-0.02em;}.cls-6{letter-spacing:-0.01em;}.cls-7{letter-spacing:-0.05em;}.cls-8{letter-spacing:-0.02em;}.cls-10{letter-spacing:-0.04em;}.cls-11{letter-spacing:-0.04em;}.cls-12{letter-spacing:-0.09em;}.cls-13{letter-spacing:-0.1em;}.cls-14{letter-spacing:-0.03em;}.cls-15{fill:#fff;}</style></defs><polygon class="cls-1" points="547.72 189.03 470.5 168.86 470.5 146.77 547.72 128.84 547.72 189.03"/><polygon class="cls-1" points="255.35 345.63 206.18 332.46 206.18 310.37 255.35 292.44 255.35 345.63"/><polygon class="cls-1" points="161.46 428.02 120.31 409.92 120.31 387.83 162.24 369.9 161.46 428.02"/><rect class="cls-1" x="64.22" y="341.75" width="39.38" height="15.37"/><polygon class="cls-1" points="184.74 72.64 184.74 81.65 198.38 77.14 184.74 72.64"/><polygon class="cls-1" points="0.5 70.85 0.5 79.86 14.14 75.35 0.5 70.85"/><polygon class="cls-1" points="69.49 189.99 69.49 180.98 55.85 185.49 69.49 189.99"/><polygon class="cls-1" points="69.49 214.73 69.49 205.72 55.85 210.22 69.49 214.73"/><polygon class="cls-1" points="24.94 353.94 24.94 344.93 11.3 349.43 24.94 353.94"/><polygon class="cls-1" points="59.72 353.94 59.72 344.93 46.08 349.43 59.72 353.94"/><polygon class="cls-1" points="59.72 451.39 59.72 442.38 46.08 446.89 59.72 451.39"/><polygon class="cls-1" points="115.59 453.92 106.58 453.92 111.08 467.56 115.59 453.92"/><circle class="cls-1" cx="284.12" cy="156.44" r="17.55"/><path class="cls-1" d="M392.27,355.63h16.49s12.72,8.33,33.3,0h40.56" transform="translate(-140.4 -206.93)"/><path class="cls-1" d="M484.39,374H438.5c-14.07-11.33-28,0-28,0h-15" transform="translate(-140.4 -206.93)"/><circle class="cls-1" cx="357" cy="157.44" r="17.55"/><path class="cls-1" d="M483.42,374s13.89-11.33,28,0h19" transform="translate(-140.4 -206.93)"/><circle class="cls-1" cx="527.65" cy="387.44" r="17.55"/><path class="cls-1" d="M676.63,610c-8.15-20.66-.71-31.3-.71-31.3h23.29" transform="translate(-140.4 -206.93)"/><path class="cls-1" d="M541.06,569.43H656.32l1.25,10.87s11.22,14-.24,28v16.43" transform="translate(-140.4 -206.93)"/><polygon class="cls-1" points="390.03 162.53 390.03 171.54 403.67 167.04 390.03 162.53"/><polygon class="cls-1" points="387.03 463.06 387.03 472.07 400.66 467.56 387.03 463.06"/><polygon class="cls-1" points="502.29 413.26 502.29 422.27 515.93 417.76 502.29 413.26"/><polygon class="cls-1" points="249.85 181.84 258.86 181.69 254.13 168.13 249.85 181.84"/><polygon class="cls-1" points="214.63 292.44 223.64 292.3 218.91 278.73 214.63 292.44"/><polygon class="cls-1" points="567.66 84.46 567.66 93.47 581.3 88.97 567.66 84.46"/><polygon class="cls-1" points="240.77 284.62 231.76 284.62 236.27 298.26 240.77 284.62"/><polygon class="cls-1" points="202.88 244.29 193.87 244.29 198.38 257.93 202.88 244.29"/><polygon class="cls-1" points="394.54 134.07 385.53 134.07 390.03 147.71 394.54 134.07"/><polygon class="cls-1" points="484.79 130.07 475.78 130.07 480.28 143.71 484.79 130.07"/><polygon class="cls-1" points="391.73 432.74 382.72 432.74 387.22 446.37 391.73 432.74"/><polygon class="cls-1" points="613.59 460.74 604.58 460.74 609.09 474.38 613.59 460.74"/><polygon class="cls-1" points="125.81 363.97 134.81 363.82 130.09 350.26 125.81 363.97"/><polygon class="cls-1" points="398.72 432.47 407.73 432.32 403 418.76 398.72 432.47"/><polygon class="cls-1" points="191.14 334.93 182.13 334.93 186.64 348.56 191.14 334.93"/><polygon class="cls-1" points="162.24 353.76 162.24 344.75 148.6 349.26 162.24 353.76"/><rect class="cls-1" x="406.23" y="128.84" width="36.5" height="90.28"/><path class="cls-1" d="M546.63,335.77s16.86-28.83,36.49,0" transform="translate(-140.4 -206.93)"/><path class="cls-1" d="M583.12,426.05c.84-1.43-17.7,27.6-36.49,0" transform="translate(-140.4 -206.93)"/><rect class="cls-1" x="180.12" y="137.13" width="36.5" height="90.28"/><path class="cls-1" d="M320.52,344.06s16.86-28.83,36.49,0" transform="translate(-140.4 -206.93)"/><path class="cls-1" d="M357,434.34c.84-1.44-17.7,27.59-36.49,0" transform="translate(-140.4 -206.93)"/><path class="cls-1" d="M725,339.8" transform="translate(-140.4 -206.93)"/><path class="cls-1" d="M737.34,349.55" transform="translate(-140.4 -206.93)"/><path class="cls-1" d="M778.45,339.64" transform="translate(-140.4 -206.93)"/><path class="cls-1" d="M762.68,349.39" transform="translate(-140.4 -206.93)"/><polygon class="cls-1" points="572.4 406.99 572.46 397.98 558.79 402.39 572.4 406.99"/><polygon class="cls-1" points="558.81 368.24 558.81 377.25 572.45 372.74 558.81 368.24"/><polygon class="cls-1" points="652.44 471.88 652.44 480.88 666.08 476.38 652.44 471.88"/><polygon class="cls-1" points="240.77 253.42 240.77 262.43 254.41 257.93 240.77 253.42"/><polygon class="cls-1" points="250.91 153.21 250.91 144.2 237.27 148.71 250.91 153.21"/><polygon class="cls-1" points="605.51 19.91 614.52 19.76 609.79 6.2 605.51 19.91"/><polygon class="cls-1" points="531.58 104.25 540.59 104.11 535.86 90.54 531.58 104.25"/><polygon class="cls-1" points="403.67 9.7 403.67 0.69 390.03 5.2 403.67 9.7"/><rect class="cls-1" x="240.15" y="329.07" width="25.31" height="55.28" transform="translate(469.11 -103.02) rotate(90)"/><path class="cls-1" d="M280.44,344.06s17.65,11.69,0,25.3" transform="translate(-140.4 -206.93)"/><path class="cls-1" d="M225.16,369.36c.88.58-16.89-12.27,0-25.3" transform="translate(-140.4 -206.93)"/><polyline class="cls-1" points="117.36 162 117.36 185.49 69.49 185.49"/><polyline class="cls-1" points="132.37 162.45 132.37 210.22 69.49 210.22"/><line class="cls-1" x1="198.38" y1="257.93" x2="240.77" y2="257.93"/><polyline class="cls-1" points="46.08 446.89 46.08 349.43 24.94 349.43"/><polyline class="cls-1" points="103.6 348.56 111.08 348.56 130.31 348.56"/><line class="cls-1" x1="111.08" y1="453.92" x2="111.08" y2="348.56"/><line class="cls-1" x1="59.72" y1="446.37" x2="387.22" y2="446.37"/><line class="cls-1" x1="403.23" y1="432.74" x2="403.23" y2="467.56"/><polyline class="cls-1" points="186.64 334.93 186.64 277.05 218.91 277.05"/><line class="cls-1" x1="236.27" y1="148.71" x2="236.27" y2="284.62"/><line class="cls-1" x1="254.41" y1="181.32" x2="254.41" y2="257.49"/><polyline class="cls-1" points="132.37 135.07 132.37 77.14 184.74 77.14"/><polyline class="cls-1" points="14.14 75.35 95.96 75.35 95.96 135.07"/><line class="cls-1" x1="390.03" y1="5.2" x2="390.03" y2="134.07"/><line class="cls-1" x1="403.67" y1="5.2" x2="609.81" y2="5.2"/><line class="cls-1" x1="610.02" y1="19.91" x2="610.02" y2="68.07"/><polyline class="cls-1" points="422.94 231.08 422.94 259.65 497.23 259.65"/><line class="cls-1" x1="596.95" y1="259.65" x2="515.93" y2="259.65"/><line class="cls-1" x1="111.08" y1="468.56" x2="387.03" y2="468.56"/><line class="cls-1" x1="609.09" y1="429.9" x2="609.09" y2="460.74"/><polyline class="cls-1" points="422.94 116.03 422.94 88.97 497.23 88.97"/><line class="cls-1" x1="516.94" y1="88.97" x2="567.66" y2="88.97"/><line class="cls-1" x1="148.6" y1="349.26" x2="148.6" y2="375.74"/><line class="cls-1" x1="186.64" y1="349.56" x2="162.24" y2="349.56"/><line class="cls-1" x1="198.38" y1="77.14" x2="198.38" y2="122.44"/><line class="cls-1" x1="609.09" y1="476.38" x2="652.44" y2="476.38"/><text class="cls-2" transform="translate(282.88 124.32)">E<tspan class="cls-3" x="8.68" y="0">x</tspan><tspan x="15.42" y="0">c</tspan><tspan class="cls-4" x="22.67" y="0">h</tspan><tspan x="30.42" y="0">a</tspan><tspan class="cls-5" x="37.93" y="0">n</tspan><tspan class="cls-4" x="45.96" y="0">g</tspan><tspan class="cls-6" x="53.71" y="0">e</tspan><tspan x="60.88" y="0">r</tspan></text><text class="cls-2" transform="translate(62.67 326.77)">Co<tspan class="cls-4" x="17.55" y="0">ol</tspan><tspan class="cls-6" x="28.73" y="0">e</tspan><tspan x="35.91" y="0">r</tspan></text><text class="cls-2" transform="translate(454.16 390.68)">B<tspan class="cls-4" x="9.08" y="0">o</tspan><tspan x="16.2" y="0">t</tspan><tspan class="cls-6" x="20.86" y="0">t</tspan><tspan class="cls-5" x="25.38" y="0">o</tspan><tspan x="32.58" y="0">m</tspan><tspan x="0" y="14.4">Co</tspan><tspan class="cls-4" x="17.55" y="14.4">ol</tspan><tspan class="cls-6" x="28.73" y="14.4">e</tspan><tspan x="35.91" y="14.4">r</tspan></text><text class="cls-2" transform="translate(180.12 64.07)">De<tspan class="cls-7" x="17.6" y="0">h</tspan><tspan class="cls-3" x="24.97" y="0">y</tspan><tspan x="32.48" y="0">d</tspan><tspan class="cls-8" x="40.53" y="0">r</tspan><tspan x="46.24" y="0">a</tspan><tspan class="cls-6" x="53.75" y="0">t</tspan><tspan class="cls-5" x="58.28" y="0">o</tspan><tspan x="65.48" y="0">r</tspan></text><text class="cls-2" transform="translate(82.49 59.98)">S<tspan class="cls-5" x="6.91" y="0">e</tspan><tspan x="14.04" y="0">p</tspan><tspan class="cls-6" x="22.08" y="0">e</tspan><tspan class="cls-8" x="29.25" y="0">r</tspan><tspan x="34.96" y="0">a</tspan><tspan class="cls-6" x="42.47" y="0">t</tspan><tspan class="cls-5" x="47" y="0">o</tspan><tspan x="54.2" y="0">r</tspan></text><line class="cls-9" x1="572.45" y1="372.74" x2="596.95" y2="372.74"/><line class="cls-9" x1="596.95" y1="402.48" x2="572.46" y2="402.48"/><text class="cls-2" transform="translate(171.44 425.26)">Gas<tspan class="cls-10" x="24.76" y="0"> </tspan><tspan x="27.49" y="0">Tu</tspan><tspan class="cls-4" x="44.38" y="0">rb</tspan><tspan x="57.93" y="0">i</tspan><tspan class="cls-5" x="62.46" y="0">n</tspan><tspan x="70.49" y="0">e</tspan></text><text class="cls-2" transform="translate(401.67 61.98)"><tspan xml:space="preserve">    C</tspan><tspan class="cls-4" x="23.17" y="0">ol</tspan><tspan x="34.36" y="0">d</tspan><tspan x="0" y="14.4">S</tspan><tspan class="cls-5" x="6.91" y="14.4">e</tspan><tspan x="14.04" y="14.4">p</tspan><tspan class="cls-6" x="22.08" y="14.4">e</tspan><tspan class="cls-8" x="29.25" y="14.4">r</tspan><tspan x="34.96" y="14.4">a</tspan><tspan class="cls-6" x="42.47" y="14.4">t</tspan><tspan class="cls-5" x="47" y="14.4">o</tspan><tspan class="cls-6" x="54.2" y="14.4">r</tspan><tspan x="59.97" y="14.4">s</tspan></text><line class="cls-1" x1="622.29" y1="425.47" x2="622.29" y2="142.46"/><line class="cls-1" x1="596.95" y1="425.62" x2="596.95" y2="142.62"/><path class="cls-1" d="M737.34,632.55s9.95,9.74,25.34-.15" transform="translate(-140.4 -206.93)"/><path class="cls-1" d="M751.06,288.58H721.7s.31,36.72,0,45.54,15.64,15.43,15.64,15.43" transform="translate(-140.4 -206.93)"/><path class="cls-1" d="M748.69,288.58h29.37s-.31,36.72,0,45.54-15.65,15.43-15.65,15.43" transform="translate(-140.4 -206.93)"/><path class="cls-1" d="M721.7,288.58s27.45-30.1,56.36,0" transform="translate(-140.4 -206.93)"/><polygon class="cls-1" points="497.23 81.65 497.23 97.4 516.94 81.65 516.94 97.4 497.23 81.65"/><line class="cls-1" x1="507.09" y1="68.27" x2="507.09" y2="89.52"/><path class="cls-1" d="M656.83,275.2H638.14S648.52,258.57,656.83,275.2Z" transform="translate(-140.4 -206.93)"/><polygon class="cls-1" points="496.73 251.68 496.73 267.43 516.43 251.68 516.43 267.43 496.73 251.68"/><line class="cls-1" x1="506.58" y1="240.14" x2="506.58" y2="258.97"/><path class="cls-1" d="M656.32,447.07H637.63S648,430.44,656.32,447.07Z" transform="translate(-140.4 -206.93)"/><text class="cls-2" transform="translate(7.32 97.4)">In<tspan class="cls-4" x="13.54" y="0">l</tspan><tspan x="17.6" y="0">et Gas</tspan></text><text class="cls-2" transform="translate(442.74 286.44)">L<tspan class="cls-6" x="8.29" y="0">i</tspan><tspan x="12.69" y="0">qu</tspan><tspan class="cls-4" x="28.95" y="0">i</tspan><tspan x="33.22" y="0">d C</tspan><tspan class="cls-5" x="54.69" y="0">o</tspan><tspan class="cls-10" x="61.89" y="0">n</tspan><tspan x="69.59" y="0">t</tspan><tspan class="cls-11" x="74.24" y="0">r</tspan><tspan class="cls-4" x="79.73" y="0">o</tspan><tspan x="86.85" y="0">l</tspan><tspan class="cls-12" x="91.18" y="0"> </tspan><tspan class="cls-13" x="93.39" y="0">V</tspan><tspan x="101.29" y="0">a</tspan><tspan class="cls-3" x="108.8" y="0">l</tspan><tspan class="cls-14" x="112.73" y="0">v</tspan><tspan x="120.31" y="0">e</tspan></text><line class="cls-9" x1="387.03" y1="362.5" x2="387.03" y2="432.74"/><line class="cls-9" x1="403" y1="417.76" x2="502.29" y2="417.76"/><polygon class="cls-1" points="400.66 366.96 400.72 357.95 387.05 362.37 400.66 366.96"/><line class="cls-1" x1="480.28" y1="88.97" x2="480.28" y2="130.07"/><line class="cls-1" x1="536.08" y1="132.87" x2="536.08" y2="104.25"/><line class="cls-9" x1="558.8" y1="402.39" x2="536.23" y2="402.39"/><line class="cls-1" x1="198.37" y1="243.57" x2="198.37" y2="239.36"/><line class="cls-15" x1="59.72" y1="349.43" x2="64.22" y2="349.43"/><line class="cls-1" x1="218.91" y1="292.44" x2="218.91" y2="305.07"/><line class="cls-1" x1="130.31" y1="363.89" x2="130.31" y2="383.55"/><path class="cls-1" d="M482.62,355.63s12.23,7,29.64,0" transform="translate(-140.4 -206.93)"/><line class="cls-1" x1="390.03" y1="148.71" x2="372.41" y2="148.71"/></svg>