
<svg
 
   id="svg8"
   version="1.1"
   viewBox="0 0 210 297"
   height="297mm"
   width="210mm">

 
  <g
     id="layer1">
    <path
       transform="matrix(0.95062541,0.17649514,-0.19453668,0.86402511,86.273656,44.35947)"
       d="M 89.535292,103.76413 C 44.773703,156.83199 105.09621,74.331284 37.690823,90.953885 -29.714566,107.57649 62.049259,152.57173 -2.2533657,126.3998 -66.555992,100.22787 30.547524,132.10387 -6.0909207,73.134198 -42.729364,14.164529 -57.165802,115.34141 -52.145422,46.098407 -47.125043,-23.144596 -47.434281,79.05656 -2.6726936,25.988699 42.088893,-27.079162 -58.597142,-9.5436549 8.8082479,-26.166254 76.21364,-42.788854 -21.080996,-11.501063 43.221631,14.670865 107.52426,40.842793 59.733302,-49.496547 96.371745,9.4731228 133.01019,68.442794 73.188035,-14.421444 68.167656,54.821559 63.147278,124.06456 134.29688,50.696271 89.535292,103.76413 Z"
       id="path3806"
       style="fill:#000000;stroke-width:0.26458332" />
  </g>
</svg>
